<svg width="17" height="17" viewBox="0 0 17 17" fill="none" xmlns="http://www.w3.org/2000/svg">
<path d="M1.23022 6.84115C1.23022 3.89448 3.61956 1.50781 6.56689 1.50781H9.47756C12.4709 1.50781 14.8969 3.93448 14.8969 6.92781C14.8969 8.90115 13.8256 10.7145 12.0996 11.6678L6.73022 14.6411V12.1811H6.68556C3.69222 12.2478 1.23022 9.84115 1.23022 6.84115ZM6.56689 2.84115C4.35556 2.84115 2.56356 4.63448 2.56356 6.84115C2.56356 9.08781 4.41022 10.8945 6.65556 10.8478L6.88956 10.8411H8.06356V12.3745L11.4549 10.5011C12.7556 9.78115 13.5636 8.41448 13.5636 6.92781C13.5636 4.66781 11.7342 2.84115 9.47756 2.84115H6.56689Z" fill="#8B99A6"/>
</svg>
