<svg width="16" height="16" viewBox="0 0 16 16" fill="none" xmlns="http://www.w3.org/2000/svg">
<path d="M6.83196 2.50033C4.43862 2.50033 2.49862 4.44033 2.49862 6.83367C2.49862 9.227 4.43862 11.167 6.83196 11.167C8.02863 11.167 9.11129 10.683 9.89596 9.89767C10.6813 9.113 11.1653 8.03033 11.1653 6.83367C11.1653 4.44033 9.22529 2.50033 6.83196 2.50033ZM1.16528 6.83367C1.16528 3.70433 3.70262 1.16699 6.83196 1.16699C9.9613 1.16699 12.4986 3.70433 12.4986 6.83367C12.4986 8.15767 12.044 9.377 11.2826 10.3417L14.47 13.529L13.5273 14.4717L10.34 11.2843C9.37529 12.0457 8.15596 12.5003 6.83196 12.5003C3.70262 12.5003 1.16528 9.963 1.16528 6.83367Z" fill="black"/>
</svg>
