<svg width="16" height="16" viewBox="0 0 16 16" fill="none" xmlns="http://www.w3.org/2000/svg">
<mask id="mask0_271_22597" style="mask-type:luminance" maskUnits="userSpaceOnUse" x="1" y="1" width="14" height="14">
<path d="M14.0007 1.3335H2.00065C1.63246 1.3335 1.33398 1.63197 1.33398 2.00016V14.0002C1.33398 14.3684 1.63246 14.6668 2.00065 14.6668H14.0007C14.3689 14.6668 14.6673 14.3684 14.6673 14.0002V2.00016C14.6673 1.63197 14.3689 1.3335 14.0007 1.3335Z" fill="white"/>
</mask>
<g mask="url(#mask0_271_22597)">
<path d="M12.0007 2.7335H4.00065C3.30065 2.7335 2.73399 3.30017 2.73399 4.00017V12.0002C2.73399 12.7002 3.30065 13.2668 4.00065 13.2668H12.0007C12.7007 13.2668 13.2673 12.7002 13.2673 12.0002V4.00017C13.2673 3.30017 12.7007 2.7335 12.0007 2.7335ZM4.00065 1.3335H12.0007C13.474 1.3335 14.6673 2.52683 14.6673 4.00017V12.0002C14.6673 13.4735 13.474 14.6668 12.0007 14.6668H4.00065C2.52732 14.6668 1.33398 13.4735 1.33398 12.0002V4.00017C1.33398 2.52683 2.52732 1.3335 4.00065 1.3335Z" fill="black"/>
<path d="M4.45361 11.8672L9.85895 4.14722H11.547L6.14028 11.8672H4.45361Z" fill="black"/>
</g>
</svg>
