<svg width="17" height="17" viewBox="0 0 17 17" fill="none" xmlns="http://www.w3.org/2000/svg">
<path d="M11.7644 3.84116C10.9497 3.80116 9.97839 4.18116 9.17106 5.28116L8.63439 6.00783L8.09706 5.28116C7.28906 4.18116 6.31706 3.80116 5.50239 3.84116C4.67373 3.88783 3.93639 4.36116 3.56239 5.1145C3.19439 5.86116 3.14039 6.96783 3.88173 8.32783C4.59773 9.64116 6.05306 11.1745 8.63439 12.7345C11.2144 11.1745 12.6691 9.64116 13.3851 8.32783C14.1257 6.96783 14.0717 5.86116 13.7031 5.1145C13.3291 4.36116 12.5924 3.88783 11.7644 3.84116ZM14.5557 8.96783C13.6551 10.6212 11.8884 12.3812 8.96973 14.0812L8.63439 14.2812L8.29839 14.0812C5.37906 12.3812 3.61239 10.6212 2.71039 8.96783C1.80373 7.30116 1.77039 5.72783 2.36773 4.52116C2.95906 3.32783 4.13239 2.58116 5.43506 2.5145C6.53573 2.4545 7.68039 2.88783 8.63373 3.8545C9.58639 2.88783 10.7311 2.4545 11.8311 2.5145C13.1337 2.58116 14.3071 3.32783 14.8984 4.52116C15.4957 5.72783 15.4624 7.30116 14.5557 8.96783Z" fill="#8B99A6"/>
</svg>
