<svg width="16" height="16" viewBox="0 0 16 16" fill="none" xmlns="http://www.w3.org/2000/svg">
<path d="M1.33228 3.66716C1.33228 2.74649 2.07828 2.00049 2.99894 2.00049H12.999C13.9196 2.00049 14.6656 2.74649 14.6656 3.66716V12.3338C14.6656 13.2545 13.9196 14.0005 12.999 14.0005H2.99894C2.07828 14.0005 1.33228 13.2545 1.33228 12.3338V3.66716ZM2.99894 3.33382C2.81494 3.33382 2.66561 3.48316 2.66561 3.66716V5.50983L7.99895 7.93516L13.3323 5.51116V3.66716C13.3323 3.48316 13.183 3.33382 12.999 3.33382H2.99894ZM13.3323 6.97583L7.99895 9.39983L2.66561 6.9745V12.3338C2.66561 12.5178 2.81494 12.6672 2.99894 12.6672H12.999C13.183 12.6672 13.3323 12.5178 13.3323 12.3338V6.97583Z" fill="black"/>
</svg>
