<svg width="16" height="16" viewBox="0 0 16 16" fill="none" xmlns="http://www.w3.org/2000/svg">
<path d="M13.3296 6.02793C12.9876 3.34459 10.7036 1.33325 7.9983 1.33325C5.29296 1.33325 3.00496 3.34725 2.66562 6.03393L1.91162 11.9999H4.73429C5.04296 13.5213 6.38829 14.6666 8.00096 14.6666C9.61363 14.6666 10.959 13.5213 11.2676 11.9999H14.0916L13.3296 6.02793ZM8.00096 13.3333C7.1303 13.3333 6.38963 12.7766 6.11496 11.9999H9.88697C9.6123 12.7766 8.87163 13.3333 8.00096 13.3333ZM3.42362 10.6666L3.98829 6.20126C4.24362 4.18126 5.96163 2.66659 7.9983 2.66659C10.035 2.66659 11.7496 4.17859 12.007 6.19659L12.577 10.6666H3.42362Z" fill="black"/>
</svg>
