<svg width="17" height="17" viewBox="0 0 17 17" fill="none" xmlns="http://www.w3.org/2000/svg">
<g clip-path="url(#clip0_2017_388)">
<path d="M3.8481 2.76099L6.80277 5.52099L5.89343 6.49432L4.51477 5.20765V10.841C4.51477 11.5743 5.1121 12.1743 5.8481 12.1743H9.51477V13.5077H5.8481C4.37543 13.5077 3.18143 12.3143 3.18143 10.841V5.20765L1.80277 6.49432L0.893433 5.52099L3.8481 2.76099ZM11.8481 4.17432H8.18143V2.84099H11.8481C13.3208 2.84099 14.5148 4.03432 14.5148 5.50765V11.141L15.8934 9.85432L16.8028 10.8277L13.8481 13.5877L10.8934 10.8277L11.8028 9.85432L13.1814 11.141V5.50765C13.1814 4.77432 12.5841 4.17432 11.8481 4.17432Z" fill="#8B99A6"/>
</g>
<defs>
<clipPath id="clip0_2017_388">
<rect width="16" height="16" fill="white" transform="translate(0.8479 0.174438)"/>
</clipPath>
</defs>
</svg>
