<svg width="16" height="16" viewBox="0 0 16 16" fill="none" xmlns="http://www.w3.org/2000/svg">
<path d="M7.02675 1.16675H8.97341L10.0201 2.74008C10.0934 2.85341 10.2334 2.90675 10.3734 2.88008L12.0601 2.48675L13.5067 3.93341L13.1201 5.62675C13.0867 5.76008 13.1467 5.90008 13.2601 5.98008L14.8334 7.02675V8.97341L13.2601 10.0201C13.1467 10.1001 13.0867 10.2401 13.1201 10.3734L13.5067 12.0667L12.0601 13.5134L10.3734 13.1201C10.2334 13.0934 10.0934 13.1467 10.0201 13.2601L8.97341 14.8334H7.02675L5.97341 13.2601C5.90008 13.1467 5.76008 13.0934 5.62675 13.1201L3.93341 13.5134L2.48675 12.0667L2.87341 10.3734C2.90675 10.2401 2.85341 10.1001 2.73341 10.0201L1.16675 8.97341V7.02675L2.73341 5.98008C2.85341 5.90008 2.90675 5.76008 2.87341 5.62675L2.48675 3.93341L3.93341 2.48675L5.62675 2.88008C5.76008 2.90675 5.90008 2.85341 5.97341 2.74008L7.02675 1.16675ZM7.74008 2.50008L7.08675 3.48008C6.70008 4.05341 6.00008 4.33341 5.32675 4.18008L4.35342 3.95341L3.95341 4.35342L4.17341 5.32675C4.33342 6.00008 4.05341 6.70675 3.47341 7.08675L2.50008 7.74008V8.26008L3.47341 8.91341C4.05341 9.29342 4.33342 10.0001 4.17341 10.6734L3.95341 11.6467L4.35342 12.0467L5.32675 11.8201C6.00008 11.6667 6.70008 11.9467 7.08675 12.5201L7.74008 13.5001H8.26008L8.90675 12.5201C9.29342 11.9467 9.99341 11.6667 10.6734 11.8201L11.6401 12.0467L12.0467 11.6467L11.8201 10.6734C11.6667 10.0001 11.9401 9.29342 12.5201 8.91341L13.5001 8.26008V7.74008L12.5201 7.08675C11.9401 6.70675 11.6667 6.00008 11.8201 5.32675L12.0467 4.35342L11.6401 3.95341L10.6734 4.18008C9.99341 4.33341 9.29342 4.05341 8.90675 3.48008L8.26008 2.50008H7.74008ZM8.00008 7.00008C7.44675 7.00008 7.00008 7.44675 7.00008 8.00008C7.00008 8.55341 7.44675 9.00008 8.00008 9.00008C8.54675 9.00008 9.00008 8.55341 9.00008 8.00008C9.00008 7.44675 8.54675 7.00008 8.00008 7.00008ZM5.66675 8.00008C5.66675 6.71342 6.70675 5.66675 8.00008 5.66675C9.28675 5.66675 10.3334 6.71342 10.3334 8.00008C10.3334 9.28675 9.28675 10.3334 8.00008 10.3334C6.70675 10.3334 5.66675 9.28675 5.66675 8.00008Z" fill="#526470"/>
</svg>
